# xmcd
#
# Track frame offsets:
#	150
#	17290
#	29867
#	40875
#	51487
#	62101
#	70409
#	79768
#	92749
#	105856
#	120676
#	131645
#	143156
#	155372
#	168528
#	183779
#	196743
#	206528
#	220886
#	233428
#
# Disc length: 3345 seconds
#
# Revision: 0
# Processed by: cddbd v1.5.1PL0 Copyright (c) Steve Scherf et al.
# Submitted via: dBpowerAMP V4.0
#
DISCID=120d0f14
DTITLE=Various Artist - Crazy Country Hits
DYEAR=2005
DGENRE=Country
TTITLE0=Johnny Cash - A Boy Named Sue
TTITLE1=George Jones - White Lightning
TTITLE2="Little" Jimmy Dickens - May the Bird of Paradise Fly up Your Nose
TTITLE3=Jerry Reed - When You're Hot, You're Hot
TTITLE4=Statler Brothers - Flowers on the Wall
TTITLE5=Roger Miller - Dang Me
TTITLE6=Lester Flatt and Earl Scruggs with the Foggy Mountain Boys - The Ballad of Jed Clampett
TTITLE7=Tom T. Hall - I Like Beer
TTITLE8=Tex Williams and His Western Caravan - Smoke! Smoke! Smoke! (that Cigarette)
TTITLE9=Ray Stevens - The Streak
TTITLE10=Sheb Wooley - That's My Pa
TTITLE11=Charlie Ryan and the Timberline Riders - Hot Rod Lincoln
TTITLE12=Red Ingle and the Natural Seven - Temptation (Tim-Tayshun)
TTITLE13=Gene Sullivan - Please Pass the Biscuits
TTITLE14=Pinkard and Bowden - Mama, She's Lazy
TTITLE15=Moe Bandy and Joe Stampley - Where's the Dress
TTITLE16=Ramblin' Jimmie Dolan - Hot Rod Race
TTITLE17=Simon Crum - Country Music Is Here to Stay
TTITLE18=Homer and Jethro - (How Much Is) that Hound Dog in the Window
TTITLE19=Lonzo and Oscar with the Winston County Pea Pickers - I'm My Own Grandpa
EXTD=
EXTT0=
EXTT1=
EXTT2=
EXTT3=
EXTT4=
EXTT5=
EXTT6=
EXTT7=
EXTT8=
EXTT9=
EXTT10=
EXTT11=
EXTT12=
EXTT13=
EXTT14=
EXTT15=
EXTT16=
EXTT17=
EXTT18=
EXTT19=
PLAYORDER=
